<svg xmlns="http://www.w3.org/2000/svg" viewBox="0 0 291.32 291.32"><path d="M145.66.001C65.21.001 0 65.22 0 145.661S65.21 291.32 145.66 291.32s145.66-65.219 145.66-145.66S226.109.001 145.66.001zM241.239 70.5c15.658 19.883 25.245 44.717 26 71.746-32.682-5.726-60.867-5.899-85.22-2.039a517.257 517.257 0 0 0-9.522-20.629c26.119-10.742 49.543-26.41 68.742-49.078zm-16.76-17.406c-17.151 20.82-38.682 35.149-63.043 44.9-15.595-28.895-31.635-52.975-44.453-70.554a120.554 120.554 0 0 1 28.668-3.45c30.069-.01 57.58 10.978 78.828 29.104zm-131.12-17.27c12.39 16.541 28.877 40.502 45 69.88-34.175 9.386-72.402 11.917-111.093 12.026 8.539-36.196 33.246-66.202 66.093-81.906zM23.997 145.65l.1-3.933h.655c43.352 0 86.394-2.84 124.985-14.211a556.354 556.354 0 0 1 8.476 18.044c-50.771 14.885-82.425 48.295-104.119 80.085-18.717-21.383-30.097-49.377-30.097-79.985zm47.831 96.61c20.538-30.934 49.16-61.541 95.735-74.396 10.879 27.876 19.755 58.3 24.453 90.254-14.293 5.936-29.942 9.213-46.347 9.213-27.758 0-53.357-9.349-73.841-25.071zm142.565 3.733c-4.98-29.196-13.137-57.044-22.96-82.862 21.285-2.704 45.755-2.048 74.122 3.168-5.671 32.972-24.625 61.459-51.162 79.694z" fill="#ea4c89"/></svg>