<svg xmlns="http://www.w3.org/2000/svg" viewBox="0 0 512 512"><path d="M119.18 164.715H16.396a8.258 8.258 0 0 0-8.258 8.258v330.204a8.256 8.256 0 0 0 8.258 8.258H119.18a8.256 8.256 0 0 0 8.258-8.258V172.973a8.258 8.258 0 0 0-8.258-8.258zM67.825.563C30.426.563 0 30.956 0 68.314c0 37.374 30.426 67.779 67.825 67.779 37.369 0 67.771-30.406 67.771-67.779C135.597 30.956 105.195.563 67.825.563zm312.796 155.945c-41.282 0-71.799 17.747-90.309 37.911v-21.446a8.258 8.258 0 0 0-8.258-8.258H183.62a8.258 8.258 0 0 0-8.258 8.258v330.204a8.256 8.256 0 0 0 8.258 8.258h102.56a8.256 8.256 0 0 0 8.258-8.258V339.803c0-55.053 14.954-76.501 53.331-76.501 41.796 0 45.117 34.383 45.117 79.334v160.543a8.256 8.256 0 0 0 8.258 8.258h102.598a8.256 8.256 0 0 0 8.258-8.258V322.056c0-81.862-15.609-165.548-131.379-165.548z" fill="#5082f6"/></svg>