<svg xmlns="http://www.w3.org/2000/svg" width="84" height="84" viewBox="0 0 84 84">
  <g id="business-analysis" transform="translate(-116)">
    <circle id="Oval" cx="42" cy="42" r="42" transform="translate(116)" fill="#e8f1fa"/>
    <g id="Digital_Marketing_Lineart_statistic" data-name="Digital Marketing Lineart_statistic" transform="translate(138 21)">
      <path id="Path" d="M0,.791a.808.808,0,0,0,1.615,0A.808.808,0,0,0,0,.791Z" transform="translate(4.038 3.266)"/>
      <path id="Path-2" data-name="Path" d="M0,.791a.808.808,0,0,0,1.615,0A.808.808,0,0,0,0,.791Z" transform="translate(8.077 3.266)"/>
      <path id="Path-3" data-name="Path" d="M0,.791a.808.808,0,0,0,1.615,0A.808.808,0,0,0,0,.791Z" transform="translate(12.115 3.266)"/>
      <path id="Path-4" data-name="Path" d="M.788,1.623H1.6A.812.812,0,0,0,1.6,0H.788A.812.812,0,0,0,.788,1.623Z" transform="translate(24.251)"/>
      <path id="Shape" d="M2.666,8.854A3.153,3.153,0,0,1,0,5.69,3.248,3.248,0,0,1,3.231,2.444c2.5,0,4.2.244,5.492-1.623a1.856,1.856,0,0,1,3.393,1.055V9.5a1.832,1.832,0,0,1-1.858,1.866c-2.261,0-.646-2.434-5.815-2.434l1.13,2.92a.8.8,0,0,1-.726,1.136C4.119,12.991,4.2,12.748,2.666,8.854Z" transform="translate(4.038 10.537)"/>
      <path id="Shape-2" data-name="Shape" d="M.807,42.188A.812.812,0,0,1,.242,40.81l6.7-6.734H3.231A3.248,3.248,0,0,1,0,30.83V24.34a.808.808,0,0,1,1.616,0V30.83a1.624,1.624,0,0,0,1.616,1.623H8.562L20.434,20.526a.78.78,0,0,1,1.131,0l4.28,4.3,9.369-9.411h-2.1a.812.812,0,0,1,0-1.623c4.442,0,4.119,0,4.361.081.646.325.484.487.484,4.787a.807.807,0,0,1-1.615,0v-2.11L26.411,26.53a.777.777,0,0,1-1.13,0L21,22.23c-4.28,4.219-7.592,7.627-10.176,10.223h7.753V28.4a1.624,1.624,0,0,1,1.615-1.623h1.616A1.624,1.624,0,0,1,23.423,28.4v4.057h2.423v-.812a1.624,1.624,0,0,1,1.615-1.623h1.615a1.624,1.624,0,0,1,1.616,1.623v.812h2.423v-7.3a1.624,1.624,0,0,1,1.615-1.622h1.616a1.623,1.623,0,0,1,1.615,1.622v7.3h.808a1.624,1.624,0,0,0,1.615-1.623V8.114H1.616V21.094a.808.808,0,0,1-1.616,0V3.245A3.248,3.248,0,0,1,3.231,0H21.808a.812.812,0,0,1,0,1.623H3.231A1.624,1.624,0,0,0,1.616,3.245V6.491H40.385V3.245a1.624,1.624,0,0,0-1.615-1.623H29.077a.812.812,0,0,1,0-1.623h9.692A3.248,3.248,0,0,1,42,3.245V30.83a3.248,3.248,0,0,1-3.231,3.245h-.808V35.7a.807.807,0,0,1-1.615,0V25.151H34.731V40.566h1.616V38.943a.807.807,0,0,1,1.615,0v1.623h3.231a.812.812,0,0,1,0,1.623H8.885a.812.812,0,0,1,0-1.623h2.423V36.509a1.624,1.624,0,0,1,1.616-1.623h1.615a1.624,1.624,0,0,1,1.616,1.623v4.056h2.423v-6.49H9.208C1.652,41.665,1.176,42.2.937,42.2.9,42.2.865,42.188.807,42.188Z"/>
    </g>
  </g>
</svg>
