<svg xmlns="http://www.w3.org/2000/svg" width="55" height="55" viewBox="0 0 55 55">
  <g id="creativity" transform="translate(0 -9)">
    <circle id="Oval" cx="27.5" cy="27.5" r="27.5" transform="translate(0 9)" fill="#e8f1fa"/>
    <g id="pencil" transform="translate(40 24)">
      <path id="Path" d="M-.143.834a.488.488,0,0,1-.69,0,.488.488,0,0,1,0-.69.488.488,0,0,1,.69,0A.489.489,0,0,1-.143.834Z" transform="translate(-8.404 15.647)"/>
      <path id="Path-2" data-name="Path" d="M-.834,5.509-5.506.833a.489.489,0,0,1,0-.691.489.489,0,0,1,.691,0L-.143,4.818a.488.488,0,0,1,0,.691.489.489,0,0,1-.691,0Z" transform="translate(-9.785 9.59)"/>
      <path id="Shape" d="M-19.332,24.852l7.5-7.54,4.2,4.2a.5.5,0,0,0,.175.113l5.483,2.037a.488.488,0,0,0,.515-.112.489.489,0,0,0,.113-.515l-2.03-5.489,0,0a.492.492,0,0,0-.111-.171l-4.206-4.206,7.547-7.5A.488.488,0,0,0,0,5.321a.487.487,0,0,0-.145-.347L-5.027.141a.488.488,0,0,0-.688,0l-7.5,7.5-5.522-5.521a2.928,2.928,0,0,0-4.144,0,2.927,2.927,0,0,0,0,4.144l5.52,5.521-7.5,7.5a.489.489,0,0,0,0,.689l4.834,4.878a.487.487,0,0,0,.346.145A.49.49,0,0,0-19.332,24.852Z" transform="translate(0 0.024)"/>
    </g>
  </g>
</svg>
