<svg xmlns="http://www.w3.org/2000/svg" width="1600" height="559.452" viewBox="0 0 1600 559.452">
  <g id="footer-shape" transform="translate(0 0)">
    <path id="Rectangle" d="M0,45.291A939.84,939.84,0,0,0,98.95,24.514C152.935,10.106,252.854,1.974,280.586.147c48.4-3.188,279.764,46.675,289.484,48.207C647.031,60.485,745.828,55.235,861.679,31.4,877.237,28.2,935.843,16.98,953,15.558c8.378-.694,90.479-10.318,169.466-12.7,79.482-2.393,287.423,30.886,287.423,30.886s18.831,3.968,32.281,5.554c31.562,3.721,37.88,5.027,64.853,5.989,32.82,1.171,92.974-.916,92.974-.916V559.452H0Z" transform="translate(0 0)" fill="#d6e1fb"/>
    <path id="Rectangle-2" data-name="Rectangle" d="M0,72.242l31.225-4.327s20.223,1.15,29.227,1.15c4.935,0,46.51.564,83.991-5.01,30.9-4.595,58.762-14.285,60.709-14.905,20.807-6.623,39.191-9.116,49.955-9.116s18.153.961,27.341,3.616c42.929,12.4,69.7,36.8,181.109,15.773,12.367-2.334,96.793-27.989,106.513-26.457C647.031,45.1,745.828,39.848,861.679,16.01,877.237,12.808,935.843,1.593,953,.171c8.378-.694,28.132,1.422,28.132,1.422s49.508,3.62,130.737,25.488C1184.544,46.645,1242.062,50,1263.382,50c46.465,0,146.51-31.642,146.51-31.642s18.831,3.968,32.281,5.554c31.562,3.721,37.88,5.027,64.853,5.989,32.82,1.171,92.974-.916,92.974-.916V544.065H0" transform="translate(0 15.387)" fill="#86a7f3"/>
    <path id="Rectangle-3" data-name="Rectangle" d="M0,84.838,31.225,80.51s20.223,1.15,29.227,1.15c4.935,0,46.51.564,83.991-5.01,30.9-4.595,58.543-15.434,60.709-14.905C299.677,84.838,374.9,103.273,519.268,98.4c14.075-.475,86.1-7.238,107.57-11.557C676.748,76.8,759.174,58.139,875.025,34.3c32.342-6.655,106.11-20.112,106.11-20.112S1059.342-3.63,1162.672.929C1311.318,7.487,1392.428,36,1392.428,36s20.815,7.34,30.148,10.987c36,14.063,63.741,24.519,84.45,29.664C1546.144,86.368,1600,87.782,1600,87.782V556.661H0" transform="translate(0 2.792)" fill="#c1d2f9"/>
    <path id="Rectangle-4" data-name="Rectangle" d="M0,70.649l31.225-4.327s20.223,1.15,29.227,1.15c4.935,0,46.51.564,83.991-5.01,30.9-4.595,58.543-15.434,60.709-14.905C299.677,70.649,374.9,89.084,519.268,84.211c14.075-.475,86.1-7.238,107.57-11.557,49.91-10.041,132.336-28.7,248.187-52.542C907.367,13.457,981.135,0,981.135,0s49.508,3.62,130.737,25.488c72.672,19.564,130.19,22.922,151.51,22.922,46.465,0,129.046-26.6,129.046-26.6s20.815,7.34,30.148,10.987c36,14.063,63.741,24.519,84.45,29.664C1546.144,72.18,1600,73.593,1600,73.593V542.472H0" transform="translate(0 16.98)" fill="#4a7ced"/>
  </g>
</svg>
