<svg xmlns="http://www.w3.org/2000/svg" width="55" height="55" viewBox="0 0 55 55">
  <g id="hq-services" transform="translate(0 -9)">
    <circle id="Oval" cx="27.5" cy="27.5" r="27.5" transform="translate(0 9)" fill="#e8f1fa"/>
    <g id="checked" transform="translate(15 26)">
      <path id="Path" d="M21.933,10.211a.667.667,0,1,0-1.331.1c.016.227.025.461.025.693a9.646,9.646,0,1,1-9.646-9.663,9.546,9.546,0,0,1,5.785,1.931.668.668,0,0,0,.8-1.069A10.869,10.869,0,0,0,10.981,0,11,11,0,1,0,21.961,11C21.961,10.735,21.952,10.47,21.933,10.211Z"/>
      <path id="Shape" d="M6.647,16.649.763,10.733a2.636,2.636,0,0,1,0-3.711,2.6,2.6,0,0,1,3.69,0L7.87,10.457,17.508.767a2.6,2.6,0,0,1,3.691,0,2.638,2.638,0,0,1,0,3.711L9.093,16.649a1.724,1.724,0,0,1-2.445,0Z" transform="translate(3.039 0.553)"/>
    </g>
  </g>
</svg>
