<svg xmlns="http://www.w3.org/2000/svg" width="55" height="55" viewBox="0 0 55 55">
  <g id="project-on-time" transform="translate(0 -9)">
    <circle id="Oval" cx="27.5" cy="27.5" r="27.5" transform="translate(0 9)" fill="#e8f1fa"/>
    <g id="watch" transform="translate(15 24)">
      <path id="Path" d="M.488.977A.488.488,0,1,0,0,.488.488.488,0,0,0,.488.977Z" transform="translate(5.029 5.029)"/>
      <path id="Shape" d="M0,12.5A12.711,12.711,0,0,1,12.5,0,12.711,12.711,0,0,1,25,12.5,12.711,12.711,0,0,1,12.5,25,12.711,12.711,0,0,1,0,12.5Z"/>
      <path id="Path-2" data-name="Path" d="M10.4,0A10.737,10.737,0,0,0,4.6,1.7a.488.488,0,1,0,.54.814A9.738,9.738,0,0,1,10.4.977,9.55,9.55,0,0,1,19.824,10.4,9.55,9.55,0,0,1,10.4,19.824,9.55,9.55,0,0,1,.977,10.4,9.738,9.738,0,0,1,2.518,5.138.488.488,0,1,0,1.7,4.6,10.737,10.737,0,0,0,0,10.4,10.517,10.517,0,0,0,10.4,20.8,10.516,10.516,0,0,0,20.8,10.4,10.516,10.516,0,0,0,10.4,0Z" transform="translate(2.1 2.1)"/>
      <path id="Shape-2" data-name="Shape" d="M0,5.371A1.468,1.468,0,0,1,.977,3.991V.489a.488.488,0,1,1,.977,0v3.5a1.471,1.471,0,0,1,.893.892H5.371a.488.488,0,0,1,0,.977H2.846A1.465,1.465,0,0,1,0,5.371Z" transform="translate(11.035 7.129)"/>
      <path id="Path-3" data-name="Path" d="M.488,1.953a.488.488,0,0,0,.488-.488V.488A.488.488,0,0,0,0,.488v.977A.488.488,0,0,0,.488,1.953Z" transform="translate(12.012 4.199)"/>
      <path id="Path-4" data-name="Path" d="M0,.488v.977a.488.488,0,0,0,.977,0V.488A.488.488,0,0,0,0,.488Z" transform="translate(12.012 18.848)"/>
      <path id="Path-5" data-name="Path" d="M.488,0a.488.488,0,0,0,0,.977h.977a.488.488,0,0,0,0-.977Z" transform="translate(4.199 12.012)"/>
      <path id="Path-6" data-name="Path" d="M1.465.977a.488.488,0,0,0,0-.977H.488a.488.488,0,0,0,0,.977Z" transform="translate(18.848 12.012)"/>
      <path id="Path-7" data-name="Path" d="M.143,1.524a.488.488,0,0,0,.69,0L1.525.834A.488.488,0,1,0,.834.143L.143.834A.488.488,0,0,0,.143,1.524Z" transform="translate(6.487 16.845)"/>
      <path id="Path-8" data-name="Path" d="M1.524.143a.489.489,0,0,0-.691,0L.143.834a.488.488,0,0,0,.691.691L1.524.834A.488.488,0,0,0,1.524.143Z" transform="translate(16.845 6.487)"/>
      <path id="Path-9" data-name="Path" d="M.834.143A.488.488,0,0,0,.143.834l.691.691A.488.488,0,1,0,1.524.834Z" transform="translate(16.845 16.845)"/>
      <path id="Path-10" data-name="Path" d="M.834,1.524A.488.488,0,1,0,1.525.834L.834.143a.488.488,0,1,0-.69.691Z" transform="translate(6.487 6.487)"/>
    </g>
  </g>
</svg>
