<svg xmlns="http://www.w3.org/2000/svg" width="84" height="84" viewBox="0 0 84 84">
  <g id="seo-booster" transform="translate(-116)">
    <circle id="Oval" cx="42" cy="42" r="42" transform="translate(116)" fill="#e8f1fa"/>
    <g id="Digital_Marketing_Lineart_mobile_SEO" data-name="Digital Marketing Lineart_mobile SEO" transform="translate(134 21)">
      <path id="Shape" d="M.966,36.67l5.018-5.009a3.183,3.183,0,0,1,3.722-.484l.891-.969A10.5,10.5,0,0,1,14.562,13.73V5.654A5.625,5.625,0,0,1,20.228,0H28.32a.808.808,0,0,1,0,1.616H20.228A4,4,0,0,0,16.18,5.654v7.511c.567-.081,1.052-.161,1.619-.242V5.654a2.382,2.382,0,0,1,2.428-2.423c4.127,0,3.56-.323,4.37,1.13.323.646.242.485,6.8.485.567,0,.648-.4,1.052-1.212.324-.565.891-.4,3.966-.4a2.382,2.382,0,0,1,2.427,2.423v21a.809.809,0,0,1-1.618,0v-21a.764.764,0,0,0-.809-.807H33.743A2.625,2.625,0,0,1,31.4,6.461h-6.07a2.438,2.438,0,0,1-2.185-1.372c-.243-.4.243-.242-2.913-.242a.764.764,0,0,0-.81.807v7.269c.729.081,3.157.484,3.48,1.13a.817.817,0,0,1-.728,1.131,18.31,18.31,0,0,0-2.428-.565C9.059,13.327,5.5,28.754,16.261,31.984c9.146,2.5,15.377-9.046,8.175-15.346a.8.8,0,1,1,1.052-1.211c7.284,6.381,2.832,17.931-6.071,18.5v2.424a.764.764,0,0,0,.81.807H36.414a.764.764,0,0,0,.809-.807V34.731a.809.809,0,0,1,1.618,0v1.616a2.382,2.382,0,0,1-2.427,2.423H20.228A2.382,2.382,0,0,1,17.8,36.347V33.923c-.486-.08-1.052-.161-1.457-.242-.242-.081-.162-.4-.162,2.666a4,4,0,0,0,4.047,4.038H36.414a4,4,0,0,0,4.046-4.038V5.654a4,4,0,0,0-4.046-4.038H31.558a.808.808,0,0,1,0-1.616h4.856A5.508,5.508,0,0,1,42,5.654V36.265a5.625,5.625,0,0,1-5.666,5.654H20.146a5.625,5.625,0,0,1-5.665-5.654V33.035a9.757,9.757,0,0,1-2.751-1.7l-.972.968a3.167,3.167,0,0,1-.485,3.716C5.012,41.354,4.769,42,3.07,42A3.084,3.084,0,0,1,.966,36.67Z"/>
      <path id="Path" d="M0,.741V2.259c0,.987,2,.987,2,0V.741C2-.247,0-.247,0,.741Z" transform="translate(37 29)"/>
      <path id="Shape-2" data-name="Shape" d="M2.64,8.86A3.146,3.146,0,0,1,0,5.693,3.234,3.234,0,0,1,3.2,2.446c2.48,0,4.16.325,5.44-1.624A1.834,1.834,0,0,1,12,1.877V9.509a1.824,1.824,0,0,1-1.84,1.867c-2.32,0-.64-2.435-5.76-2.435l1.12,2.923A.8.8,0,0,1,4.8,13C4.08,13,4.16,12.757,2.64,8.86Z" transform="translate(12 18)"/>
    </g>
  </g>
</svg>
