<svg xmlns="http://www.w3.org/2000/svg" width="84" height="84" viewBox="0 0 84 84">
  <g id="social-media-marketing" transform="translate(-117)">
    <circle id="Oval" cx="42" cy="42" r="42" transform="translate(117)" fill="#e8f1fa"/>
    <g id="Digital_Marketing_Lineart_Social_Media" data-name="Digital Marketing Lineart_Social Media" transform="translate(134 17)">
      <path id="Shape" d="M2.017,35.466a6.706,6.706,0,0,1,8.75-.5l3.75-3.75a11.292,11.292,0,0,1-2.834-6.833H9.016c-1.083,4.166-7.333,2.667-6.5-1.5a.826.826,0,0,1,1.417-.417c.417.417.167.667.25,1.25A1.73,1.73,0,0,0,5.35,25.05a1.712,1.712,0,0,0,2.083-2.083A1.647,1.647,0,0,0,5.517,21.8a.852.852,0,0,1-.334-1.667A3.246,3.246,0,0,1,9.016,22.55h2.667a11.486,11.486,0,0,1,2.834-6.75c-.584-.667-1.75-1.834-3.75-3.834A6.66,6.66,0,1,1,6.683.05a6.906,6.906,0,0,1,5.5,10.916l3.75,3.75a11.485,11.485,0,0,1,6.75-2.833V9.217a3.344,3.344,0,1,1,1.667,0v2.667a11.217,11.217,0,0,1,6.833,2.75l3.75-3.749A6.668,6.668,0,0,1,35.6,1.967c.833-.75,2,.417,1.166,1.166a4.969,4.969,0,0,0,2.25,8.5A5.041,5.041,0,0,0,45.1,5.883,5.078,5.078,0,0,0,39.267,1.8c-1.084.166-1.334-1.5-.334-1.667a6.642,6.642,0,0,1,5.917,11.25l-.249.25a6.691,6.691,0,0,1-8.584.333l-3.749,3.75a12.094,12.094,0,0,1,2.75,6.834h2.667a3.344,3.344,0,1,1,0,1.666H35.016a11.538,11.538,0,0,1-2.833,6.834l3.75,3.75A6.59,6.59,0,0,1,46.6,40.05a6.661,6.661,0,1,1-11.917-4.083l-3.75-3.75c-1,.833-2-.5-1.166-1.166a10.1,10.1,0,0,0,.75-14.584l-.249-.25c-7.25-7.083-19.917.25-16.334,10.751a8.5,8.5,0,0,0,2,3.334.749.749,0,0,1,.5.5A10.157,10.157,0,0,0,24.1,33.384a.837.837,0,1,1,.167,1.666c-.084,0-.084-.333-.084,2.667a3.344,3.344,0,1,1-1.667,0V35.05a11.5,11.5,0,0,1-6.833-2.833c-2,2-3.083,3.167-3.75,3.75a6.66,6.66,0,0,1-5.25,10.75A6.556,6.556,0,0,1,2.017,35.466Z" transform="translate(1.65 1.617)"/>
      <path id="Shape-2" data-name="Shape" d="M2.75,9.095A3.243,3.243,0,0,1,0,5.844,3.343,3.343,0,0,1,3.334,2.511c2.583,0,4.333.333,5.666-1.667a1.915,1.915,0,0,1,3.5,1.084V9.76a1.886,1.886,0,0,1-1.917,1.917c-2.333,0-.583-2.5-6-2.5l1.166,3A.821.821,0,0,1,5,13.344C4.25,13.344,4.333,13.094,2.75,9.095Z" transform="translate(18.333 18.323)"/>
      <path id="Path" d="M.05,1.068C.467,2.235,2.217,1.4,1.55.4A.829.829,0,0,0,.05,1.068Z" transform="translate(28.283 34.182)"/>
      <path id="Path-2" data-name="Path" d="M1.147,1.572c1.083-.417.333-1.917-.667-1.5A.827.827,0,0,0,.064,1.156.925.925,0,0,0,1.147,1.572Z" transform="translate(14.603 2.011)"/>
      <path id="Path-3" data-name="Path" d="M1.667.813A.834.834,0,0,0,0,.813.834.834,0,0,0,1.667.813Z" transform="translate(24.167 0.021)"/>
      <path id="Path-4" data-name="Path" d="M.621,1.634c.667.25,1.167-.583,1-.583A.819.819,0,1,0,.038.634.831.831,0,0,0,.621,1.634Z" transform="translate(30.629 0.866)"/>
      <path id="Path-5" data-name="Path" d="M1.016,1.629A.819.819,0,1,0,.6.046a.857.857,0,0,0-.583,1A.789.789,0,0,0,1.016,1.629Z" transform="translate(17.734 0.871)"/>
      <path id="Path-6" data-name="Path" d="M.763,1.7c.667.167,1-.75.917-.75A.843.843,0,0,0,.013.7.861.861,0,0,0,.763,1.7Z" transform="translate(27.404 0.218)"/>
      <path id="Path-7" data-name="Path" d="M.534,1.578a.879.879,0,0,0,1.083-.417A.821.821,0,0,0,.117.495C-.049.495-.133,1.328.534,1.578Z" transform="translate(33.716 2.005)"/>
      <path id="Path-8" data-name="Path" d="M1,1.667A.843.843,0,1,0,.75,0,.976.976,0,0,0,0,.917.964.964,0,0,0,1,1.667Z" transform="translate(20.833 0.25)"/>
      <path id="Path-9" data-name="Path" d="M.038.634a.831.831,0,0,0,.583,1,.8.8,0,0,0,1-.583A.819.819,0,1,0,.038.634Z" transform="translate(17.712 47.45)"/>
      <path id="Path-10" data-name="Path" d="M0,.813a.834.834,0,0,0,1.667,0A.834.834,0,0,0,0,.813Z" transform="translate(24.167 48.354)"/>
      <path id="Path-11" data-name="Path" d="M.012.7a.843.843,0,0,0,1.667.25A.843.843,0,0,0,.012.7Z" transform="translate(20.905 48.135)"/>
      <path id="Path-12" data-name="Path" d="M.059.552A.883.883,0,0,0,.476,1.635a.8.8,0,0,0,1.083-.417A.823.823,0,1,0,.059.552Z" transform="translate(14.608 46.365)"/>
      <path id="Path-13" data-name="Path" d="M.721,0a.843.843,0,1,0,.25,1.667A.845.845,0,0,0,.721,0Z" transform="translate(27.445 48.167)"/>
      <path id="Path-14" data-name="Path" d="M.516.072A.764.764,0,0,0,.1,1.156a.81.81,0,0,0,1.083.417C2.183,1.156,1.433-.344.516.072Z" transform="translate(33.734 46.344)"/>
      <path id="Path-15" data-name="Path" d="M.6.044a.857.857,0,0,0-.583,1,.884.884,0,0,0,1,.583A.819.819,0,0,0,.6.044Z" transform="translate(30.651 47.456)"/>
      <path id="Path-16" data-name="Path" d="M.481.069A.827.827,0,0,0,.064,1.153a.81.81,0,0,0,1.083.417C2.147,1.236,1.481-.347.481.069Z" transform="translate(2.019 33.681)"/>
      <path id="Path-17" data-name="Path" d="M.609,1.627a.8.8,0,0,0,1-.583.8.8,0,0,0-.583-1A.819.819,0,0,0,.609,1.627Z" transform="translate(0.891 17.706)"/>
      <path id="Path-18" data-name="Path" d="M.689,1.667A.843.843,0,0,0,.939,0,.843.843,0,0,0,.689,1.667Z" transform="translate(0.228 20.917)"/>
      <path id="Path-19" data-name="Path" d="M1.161.072a.821.821,0,0,0-.667,1.5.8.8,0,0,0,1.083-.417A.909.909,0,0,0,1.161.072Z" transform="translate(2.005 14.594)"/>
      <path id="Path-20" data-name="Path" d="M1.044,1.627A.819.819,0,0,0,.627.044a.826.826,0,0,0-.583,1A.774.774,0,0,0,1.044,1.627Z" transform="translate(0.873 30.623)"/>
      <path id="Path-21" data-name="Path" d="M1.667.813A.834.834,0,0,0,0,.813.834.834,0,0,0,1.667.813Z" transform="translate(0 24.188)"/>
      <path id="Path-22" data-name="Path" d="M1.678.692c-.167-1-1.833-.917-1.667.25A.843.843,0,0,0,1.678.692Z" transform="translate(0.238 27.474)"/>
      <path id="Path-23" data-name="Path" d="M.948,0A.837.837,0,1,0,.865,1.667.839.839,0,0,0,.948,0Z" transform="translate(48.135 27.417)"/>
      <path id="Path-24" data-name="Path" d="M1.161.072a.821.821,0,0,0-.667,1.5.8.8,0,0,0,1.083-.417A.766.766,0,0,0,1.161.072Z" transform="translate(46.339 33.678)"/>
      <path id="Path-25" data-name="Path" d="M1.05.027A.819.819,0,1,0,.634,1.61a.8.8,0,0,0,1-.583A.85.85,0,0,0,1.05.027Z" transform="translate(47.45 30.64)"/>
      <path id="Path-26" data-name="Path" d="M1.18,1.6A.8.8,0,0,0,1.6.515a.821.821,0,1,0-1.5.667A.913.913,0,0,0,1.18,1.6Z" transform="translate(46.32 14.652)"/>
      <path id="Path-27" data-name="Path" d="M.013.917a.854.854,0,0,0,.917.75A.843.843,0,1,0,.68,0,.826.826,0,0,0,.013.917Z" transform="translate(48.154 20.917)"/>
      <path id="Path-28" data-name="Path" d="M.051,1.046c.25.833,1.25.583,1,.583A.819.819,0,1,0,.635.046.74.74,0,0,0,.051,1.046Z" transform="translate(47.449 17.704)"/>
      <path id="Path-29" data-name="Path" d="M0,.844a.834.834,0,0,0,1.667,0A.833.833,0,1,0,0,.844Z" transform="translate(48.333 24.156)"/>
      <path id="Path-30" data-name="Path" d="M2.5,1.664A.787.787,0,0,0,3.333.83C3.333-.753,0,0,0,2.5V5.83a.834.834,0,0,0,1.667,0V4.164H2.5A.834.834,0,0,0,2.5,2.5H1.667A.787.787,0,0,1,2.5,1.664Z" transform="translate(40 5.003)"/>
      <path id="Path-31" data-name="Path" d="M3.313,3.313a.834.834,0,0,0,0-1.667H2.479V.813a.834.834,0,0,0-1.667,0v.833a.834.834,0,0,0,0,1.667V4.979A1.672,1.672,0,0,0,2.479,6.646h.833a.834.834,0,0,0,0-1.667H2.479V3.313Z" transform="translate(39.188 38.354)"/>
      <path id="Shape-3" data-name="Shape" d="M2.5,6.666A2.455,2.455,0,0,1,0,4.167V2.5A2.456,2.456,0,0,1,2.5,0H4.167a2.455,2.455,0,0,1,2.5,2.5V4.167a2.454,2.454,0,0,1-2.5,2.5Z" transform="translate(5 38.333)"/>
      <path id="Path-32" data-name="Path" d="M0,.813a.834.834,0,0,0,1.667,0A.834.834,0,0,0,0,.813Z" transform="translate(7.5 40.854)"/>
      <path id="Path-33" data-name="Path" d="M2.9,0H.813a.834.834,0,0,0,0,1.667H2.9a.417.417,0,1,1,0,.833H2.479a.834.834,0,0,0-1.667,0V5A.834.834,0,0,0,2.479,5V4.167H2.9A2.063,2.063,0,0,0,4.979,2.083,2.063,2.063,0,0,0,2.9,0Z" transform="translate(5.854 5.833)"/>
    </g>
  </g>
</svg>
