<svg xmlns="http://www.w3.org/2000/svg" width="84" height="84" viewBox="0 0 84 84">
  <g id="ui-ux-design" transform="translate(-116)">
    <circle id="Oval" cx="42" cy="42" r="42" transform="translate(116)" fill="#e8f1fa"/>
    <g id="Digital_Marketing_Lineart_Blogging" data-name="Digital Marketing Lineart_Blogging" transform="translate(137 21)">
      <path id="Path" d="M.818,0a.808.808,0,1,0,0,1.615A.808.808,0,1,0,.818,0Z" transform="translate(8.874 40.385)"/>
      <path id="Path-2" data-name="Path" d="M1.615.788A.808.808,0,0,0,0,.788.808.808,0,0,0,1.615.788Z" transform="translate(13.731 3.251)"/>
      <path id="Path-3" data-name="Path" d="M1.615.788A.808.808,0,0,0,0,.788.808.808,0,0,0,1.615.788Z" transform="translate(16.962 3.251)"/>
      <path id="Path-4" data-name="Path" d="M1.615.788A.808.808,0,0,0,0,.788.808.808,0,0,0,1.615.788Z" transform="translate(20.192 3.251)"/>
      <path id="Shape" d="M2.423,8.077A2.38,2.38,0,0,1,0,5.654V2.423A2.38,2.38,0,0,1,2.423,0H8.077A2.38,2.38,0,0,1,10.5,2.423V5.654A2.38,2.38,0,0,1,8.077,8.077Z" transform="translate(13.731 10.5)"/>
      <path id="Path-5" data-name="Path" d="M7.249,0H.788a.808.808,0,0,0,0,1.615H7.249A.808.808,0,0,0,7.249,0Z" transform="translate(26.674 10.5)"/>
      <path id="Path-6" data-name="Path" d="M7.249,0H.788a.808.808,0,0,0,0,1.615H7.249A.808.808,0,0,0,7.249,0Z" transform="translate(26.674 14.538)"/>
      <path id="Shape-2" data-name="Shape" d="M12.892,42a.808.808,0,0,1,0-1.616H29.128a5.822,5.822,0,0,1-1.616-3.312c-.081-.646,0-.888-.242-1.211-.485-.484,1.049-.323-24.877-.323-1.858,0-.485,4.847,3.23,4.847h.808a.808.808,0,0,1,0,1.616H5.623c-5.815,0-7.511-8.077-3.23-8.077H9.662V2.423A2.38,2.38,0,0,1,12.085,0H36.316a2.38,2.38,0,0,1,2.423,2.423V18.658a4.062,4.062,0,0,1,3.231,3.957v1.616a.808.808,0,0,1-1.615,0V22.615a2.38,2.38,0,0,0-2.423-2.423H28.239a2.38,2.38,0,0,0-2.424,2.423c0,7.027,0,6.542.081,6.865l3.635-3.634a1.561,1.561,0,0,1,2.261,0L34.7,28.754l1.292-1.292a1.561,1.561,0,0,1,2.262,0l2.019,2.019c.081-.242.081-.161.081-2.019a.808.808,0,0,1,1.615,0v1.615a4.063,4.063,0,0,1-3.231,3.957v3.15A5.654,5.654,0,0,1,33.085,42Z" transform="translate(0.03)"/>
      <path id="Shape-3" data-name="Shape" d="M0,2.02A2,2,0,0,1,2.02,0,2,2,0,0,1,4.038,2.02,2,2,0,0,1,2.02,4.038,2,2,0,0,1,0,2.02Z" transform="translate(33.923 21.808)"/>
      <path id="Path-7" data-name="Path" d="M8.057,0H.788a.808.808,0,0,0,0,1.615H8.057A.808.808,0,0,0,8.057,0Z" transform="translate(13.751 21)"/>
      <path id="Path-8" data-name="Path" d="M8.057,0H.788a.808.808,0,0,0,0,1.615H8.057A.808.808,0,0,0,8.057,0Z" transform="translate(13.751 25.038)"/>
      <path id="Path-9" data-name="Path" d="M8.057,0H.788a.808.808,0,0,0,0,1.615H8.057A.808.808,0,0,0,8.057,0Z" transform="translate(13.751 29.077)"/>
      <path id="Shape-4" data-name="Shape" d="M2.585,30.289A32.8,32.8,0,0,1,0,26.169v-8.4a.808.808,0,0,1,1.616,0v6.784a3.775,3.775,0,0,1,3.231,0V6.461H1.616v8.077a.808.808,0,0,1-1.616,0V2.423A2.38,2.38,0,0,1,2.423,0H4.038A2.38,2.38,0,0,1,6.461,2.423c0,26.331.162,23.747-.242,24.393-.08.081-1.777,2.827-2.181,3.311a.719.719,0,0,1-.484.485.528.528,0,0,1-.237.052A.978.978,0,0,1,2.585,30.289Z" transform="translate(0.808 1.615)"/>
    </g>
  </g>
</svg>
