<svg xmlns="http://www.w3.org/2000/svg" width="84" height="84" viewBox="0 0 84 84">
  <g id="web-development" transform="translate(-116)">
    <circle id="Oval" cx="42" cy="42" r="42" transform="translate(116)" fill="#e8f1fa"/>
    <g id="Digital_Marketing_Lineart_Copywriter" data-name="Digital Marketing Lineart_Copywriter" transform="translate(137 21)">
      <path id="Shape" d="M4.846,42a3.24,3.24,0,0,1-3.231-3.231V34.731a.808.808,0,0,1,1.616,0v4.038a1.62,1.62,0,0,0,1.615,1.615H37.154a1.621,1.621,0,0,0,1.616-1.615V25.846H36.347a.808.808,0,0,1,0-1.615h2.423V22.615a4,4,0,0,0-4.038-4.038H31.1C29.238,21.323,29.885,21,27.866,21A7.315,7.315,0,0,1,25.6,24.231h7.511a.808.808,0,0,1,0,1.615H3.231v1.615a.808.808,0,0,1-1.616,0V22.615a5.774,5.774,0,0,1,2.423-4.684,2.96,2.96,0,0,1-.807-2.585H1.616v.808a.808.808,0,0,1-1.616,0V12.923a.808.808,0,0,1,1.616,0v.807H3.231v-.807A2.379,2.379,0,0,1,5.654,10.5H8.077V4.038A4,4,0,0,1,12.116,0H26.654a.808.808,0,0,1,0,1.616H12.116A2.38,2.38,0,0,0,9.692,4.038V16.961c2.424,0,1.7-.4,3.635,2.423,1.454,0,2.019-.08,2.181.646a5.677,5.677,0,0,0,10.985,0c.242-.807.807-.646,2.181-.646,1.858-2.827,1.13-2.423,3.634-2.423,0-13.65-.323-13.892.808-15.346H29.885a.808.808,0,0,1,0-1.616h6.381a4.153,4.153,0,0,1,4.119,4.2V7.269a2.38,2.38,0,0,1-2.424,2.423H33.923V10.5h2.424a2.38,2.38,0,0,1,2.423,2.423v.807h1.615v-.807a.808.808,0,0,1,1.616,0v3.231a.808.808,0,0,1-1.616,0v-.808H38.769a2.8,2.8,0,0,1-.808,2.585,5.772,5.772,0,0,1,2.424,4.684V38.769A3.241,3.241,0,0,1,37.154,42Z"/>
      <path id="Path" d="M.788,1.615H15.326a.808.808,0,0,0,0-1.615H.788A.808.808,0,0,0,.788,1.615Z" transform="translate(12.943 4.846)"/>
      <path id="Path-2" data-name="Path" d="M15.326,0H.788a.808.808,0,0,0,0,1.615H15.326A.808.808,0,0,0,15.326,0Z" transform="translate(12.943 9.692)"/>
      <path id="Path-3" data-name="Path" d="M15.326,0H.788a.808.808,0,0,0,0,1.615H15.326A.808.808,0,0,0,15.326,0Z" transform="translate(12.943 14.538)"/>
      <path id="Path-4" data-name="Path" d="M1.615,1.6V.788A.808.808,0,0,0,0,.788V1.6A.808.808,0,0,0,1.615,1.6Z" transform="translate(1.615 29.905)"/>
      <path id="Path-5" data-name="Path" d="M.788,1.615H1.6A.808.808,0,0,0,1.6,0H.788A.808.808,0,0,0,.788,1.615Z" transform="translate(21.828 32.308)"/>
      <path id="Path-6" data-name="Path" d="M.788,1.615H1.6A.808.808,0,0,0,1.6,0H.788A.808.808,0,0,0,.788,1.615Z" transform="translate(29.905 32.308)"/>
      <path id="Path-7" data-name="Path" d="M1.6,1.615A.808.808,0,0,0,1.6,0H.788a.808.808,0,0,0,0,1.615Z" transform="translate(33.943 32.308)"/>
      <path id="Path-8" data-name="Path" d="M.788,1.615H1.6A.808.808,0,0,0,1.6,0H.788A.808.808,0,0,0,.788,1.615Z" transform="translate(25.866 32.308)"/>
      <path id="Path-9" data-name="Path" d="M.788,1.615H1.6A.808.808,0,0,0,1.6,0H.788A.808.808,0,0,0,.788,1.615Z" transform="translate(17.789 32.308)"/>
      <path id="Path-10" data-name="Path" d="M.788,1.615H1.6A.808.808,0,0,0,1.6,0H.788A.808.808,0,0,0,.788,1.615Z" transform="translate(13.751 32.308)"/>
      <path id="Path-11" data-name="Path" d="M.788,1.615H1.6A.808.808,0,0,0,1.6,0H.788A.808.808,0,0,0,.788,1.615Z" transform="translate(9.712 32.308)"/>
      <path id="Path-12" data-name="Path" d="M.788,1.615H1.6A.808.808,0,0,0,1.6,0H.788A.808.808,0,0,0,.788,1.615Z" transform="translate(21.828 28.269)"/>
      <path id="Path-13" data-name="Path" d="M.788,1.615H1.6A.808.808,0,0,0,1.6,0H.788A.808.808,0,0,0,.788,1.615Z" transform="translate(29.905 28.269)"/>
      <path id="Path-14" data-name="Path" d="M.788,1.615H1.6A.808.808,0,0,0,1.6,0H.788A.808.808,0,0,0,.788,1.615Z" transform="translate(25.866 28.269)"/>
      <path id="Path-15" data-name="Path" d="M.788,1.615H1.6A.808.808,0,0,0,1.6,0H.788A.808.808,0,0,0,.788,1.615Z" transform="translate(17.789 28.269)"/>
      <path id="Path-16" data-name="Path" d="M.788,1.615H1.6A.808.808,0,0,0,1.6,0H.788A.808.808,0,0,0,.788,1.615Z" transform="translate(13.751 28.269)"/>
      <path id="Path-17" data-name="Path" d="M.788,1.615H1.6A.808.808,0,0,0,1.6,0H.788A.808.808,0,0,0,.788,1.615Z" transform="translate(9.712 28.269)"/>
      <path id="Path-18" data-name="Path" d="M1.6,1.615A.808.808,0,0,0,1.6,0H.788a.808.808,0,0,0,0,1.615Z" transform="translate(5.674 32.308)"/>
      <path id="Path-19" data-name="Path" d="M.788,1.615H1.6A.808.808,0,0,0,1.6,0H.788A.808.808,0,0,0,.788,1.615Z" transform="translate(9.712 36.346)"/>
      <path id="Path-20" data-name="Path" d="M.788,1.615H1.6A.808.808,0,0,0,1.6,0H.788A.808.808,0,0,0,.788,1.615Z" transform="translate(29.905 36.346)"/>
      <path id="Path-21" data-name="Path" d="M.788,1.615H13.711a.808.808,0,0,0,0-1.615H.788A.808.808,0,0,0,.788,1.615Z" transform="translate(13.751 36.346)"/>
    </g>
  </g>
</svg>
